<?xml version="1.0" encoding="UTF-8"?>
<svg version="1.1" xmlns="http://www.w3.org/2000/svg" width="1447" height="1142">
<path d="M0 0 C477.51 0 955.02 0 1447 0 C1447 376.86 1447 753.72 1447 1142 C969.49 1142 491.98 1142 0 1142 C0 765.14 0 388.28 0 0 Z " fill="#FEFEFE" transform="translate(0,0)"/>
<path d="M0 0 C0.94282331 -0.00085442 1.88564663 -0.00170885 2.85704035 -0.00258917 C5.99377889 -0.00422693 9.1304631 0.00124935 12.26719666 0.00672913 C14.5246531 0.00701139 16.78210964 0.00685249 19.03956604 0.00628662 C25.15248257 0.00600018 31.26537941 0.01187212 37.37829137 0.01886058 C43.77244672 0.02511966 50.16660255 0.02569994 56.5607605 0.02688599 C67.28794255 0.02963909 78.01511601 0.03588167 88.74229431 0.04481506 C99.78786686 0.05400401 110.83343746 0.06107758 121.87901306 0.06532288 C122.90149928 0.06571696 122.90149928 0.06571696 123.94464178 0.06611901 C127.36455837 0.06742411 130.78447498 0.0686878 134.2043916 0.06993091 C162.54426061 0.08028569 190.8841218 0.09796311 219.22398376 0.12025452 C219.27541187 71.65488673 219.323109 143.18952116 219.35101318 214.72416687 C219.35142735 215.78321421 219.35184153 216.84226155 219.35226825 217.93340124 C219.36124736 240.95037664 219.36955785 263.96735223 219.37717975 286.98432811 C219.3809217 298.27214998 219.38481137 309.55997179 219.38877869 320.84779358 C219.38917096 321.97105646 219.38956324 323.09431935 219.38996741 324.2516205 C219.40274722 360.64767445 219.425278 397.04371441 219.45287543 433.43975989 C219.48118817 470.84719509 219.49964357 508.25462255 219.50572873 545.66206829 C219.50659318 550.94784988 219.50757009 556.23363144 219.50861549 561.51941299 C219.50881776 562.55971169 219.50902003 563.60001039 219.50922843 564.67183329 C219.51277103 581.405286 219.52667832 598.13871476 219.54447987 614.87215771 C219.56216261 631.70247089 219.56888243 648.53276037 219.5644879 665.36308251 C219.5622094 675.35736421 219.56826046 685.35155901 219.58637639 695.34582499 C219.59766362 702.03070198 219.59794842 708.71552236 219.58947921 715.40040333 C219.5849699 719.20378747 219.58506136 723.0070078 219.59863331 726.81037407 C219.74875142 771.50066089 207.66923964 810.48027007 176.22398376 843.12025452 C175.58203064 843.8253717 174.94007751 844.53048889 174.27867126 845.25697327 C150.39322728 870.7451202 113.07407874 885.12027732 78.66748619 886.38525963 C72.71753623 886.52010502 66.76943013 886.4926058 60.81846619 886.46083069 C58.52309084 886.45990902 56.22771464 886.46031669 53.93233967 886.46192646 C47.85258204 886.4625965 41.77300594 886.44536333 35.69329071 886.42409515 C29.96283472 886.40685562 24.23242018 886.40619746 18.50193787 886.40406799 C1.80509632 886.38840187 -14.89171233 886.34651808 -31.58851624 886.30775452 C-68.94039124 886.24587952 -106.29226624 886.18400452 -144.77601624 886.12025452 C-144.77601624 783.49025452 -144.77601624 680.86025452 -144.77601624 575.12025452 C-140.03720049 575.79722819 -135.53774118 576.55024862 -130.88539124 577.57337952 C-129.54093232 577.86428077 -128.19627771 578.1542787 -126.85145569 578.4434967 C-126.14816132 578.59476013 -125.44486694 578.74602356 -124.72026062 578.90187073 C-83.94545767 587.60566728 -42.21253201 592.33770487 -0.51161194 592.25062561 C2.52204933 592.24527995 5.5555614 592.25059849 8.58921814 592.25697327 C26.54743733 592.26499102 44.33844271 591.65044287 62.16148376 589.37025452 C62.84198792 589.28377655 63.52249207 589.19729858 64.22361755 589.10820007 C88.50951766 585.98507145 111.85937618 579.79681957 133.47349548 568.06703186 C135.088002 567.19380226 136.71979667 566.35274003 138.35289001 565.51478577 C159.36613182 554.18274458 172.14198151 536.70975336 181.22398376 515.12025452 C181.66742126 514.07095764 182.11085876 513.02166077 182.56773376 511.94056702 C188.21099322 496.84912317 188.67296538 480.0683321 188.65635681 464.14271545 C188.66540685 462.34667807 188.67574179 460.55064679 188.6872406 458.75462341 C188.7144568 453.95015883 188.7240461 449.1458125 188.73009467 444.34128094 C188.73957203 439.29378396 188.76578175 434.24637219 188.7901001 429.19892883 C188.83351418 419.67271688 188.86221436 410.14652169 188.88542348 400.6202414 C188.91770976 387.72488527 188.97314097 374.82962899 189.02716923 361.93434906 C189.11150026 341.66301421 189.16526698 321.39171726 189.22398376 301.12025452 C147.31398376 301.12025452 105.40398376 301.12025452 62.22398376 301.12025452 C62.27039001 314.06115295 62.31679626 327.00205139 62.36460876 340.33509827 C62.38505597 348.55189836 62.40447847 356.76867991 62.41929626 364.98548889 C62.44298558 378.01672193 62.47076031 391.04785114 62.52574158 404.07899475 C62.56577359 413.57158144 62.59145534 423.0640835 62.60033774 432.55675226 C62.60552492 437.57700338 62.61760373 442.5970125 62.64690399 447.61718559 C62.67433248 452.35566635 62.68237416 457.09380861 62.67641449 461.83236122 C62.6775026 463.55873844 62.6852914 465.28512862 62.70080566 467.01143646 C62.88498662 488.58923891 58.00243003 507.10347749 43.63023376 523.69056702 C30.18358638 537.26818824 10.92192646 545.11825511 -8.1048584 545.28485107 C-8.87161392 545.2859639 -9.63836945 545.28707672 -10.42835999 545.28822327 C-11.24615433 545.29155167 -12.06394867 545.29488007 -12.90652466 545.29830933 C-14.63360538 545.30335047 -16.36069575 545.30571853 -18.08778381 545.30555725 C-20.67478945 545.30772211 -23.26135268 545.3258478 -25.84828186 545.34486389 C-41.43565532 545.40054309 -56.07060111 543.61442829 -71.27601624 539.99525452 C-71.91631775 539.84374939 -72.55661926 539.69224426 -73.21632385 539.53614807 C-96.61728283 533.96462853 -119.43685831 525.83965949 -140.95814514 515.03669739 C-141.67435028 514.67751095 -142.39055542 514.31832451 -143.12846375 513.94825363 C-143.94400223 513.53839407 -143.94400223 513.53839407 -144.77601624 513.12025452 C-144.8447676 465.05094724 -144.89758825 416.9816452 -144.92921222 368.9122984 C-144.93296409 363.22998942 -144.93684708 357.54768054 -144.94081116 351.8653717 C-144.94159809 350.7341843 -144.94238502 349.60299689 -144.9431958 348.43753108 C-144.95622961 330.15075742 -144.97987225 311.86401221 -145.00747462 293.5772554 C-145.03558524 274.7963545 -145.05220443 256.01546845 -145.05828172 237.23454738 C-145.06238645 225.65710195 -145.07532431 214.07973697 -145.09976564 202.50231633 C-145.11569274 194.55012252 -145.1204009 186.59796997 -145.11652037 178.6457614 C-145.11460962 174.06612603 -145.11742078 169.48663068 -145.13363266 164.90702057 C-145.28590542 119.58715718 -137.21583827 79.90526853 -104.77601624 46.12025452 C-104.31920471 45.62702698 -103.86239319 45.13379944 -103.39173889 44.62562561 C-76.9172166 16.0598533 -38.90456839 -0.1310376 0 0 Z " fill="#054C93" transform="translate(276.77601623535156,127.87974548339844)"/>
<path d="M0 0 C0.95659425 -0.00085442 1.9131885 -0.00170885 2.89877045 -0.00258917 C6.10010478 -0.00423463 9.30138657 0.00126215 12.50271606 0.00672913 C14.79913837 0.00701122 17.09556077 0.00685282 19.39198303 0.00628662 C25.62490792 0.00599953 31.85781359 0.01188201 38.090734 0.01886058 C44.60502367 0.02510881 51.11931376 0.02569908 57.63360596 0.02688599 C68.56703026 0.02964166 79.50044747 0.03588929 90.43386841 0.04481506 C101.6939592 0.05399795 112.95404807 0.0610745 124.21414185 0.06532288 C124.90853547 0.0655856 125.6029291 0.06584832 126.31836496 0.06611901 C129.80202975 0.06742407 133.28569454 0.06868777 136.76935935 0.06993091 C165.65720818 0.08029296 194.54504984 0.09797655 223.43289185 0.12025452 C223.48431537 72.1598001 223.53201313 144.19934788 223.55992126 216.23890686 C223.56033544 217.305279 223.56074961 218.37165115 223.56117633 219.4703376 C223.57015525 242.64601488 223.57846577 265.82169236 223.58608783 288.99737012 C223.58982981 300.3628759 223.59371948 311.72838163 223.59768677 323.09388733 C223.59807904 324.22488595 223.59847132 325.35588456 223.59887549 326.52115586 C223.61165732 363.17369837 223.63418961 399.82622698 223.66178351 436.47876108 C223.69009057 474.14703272 223.70855034 511.81529667 223.71463682 549.48357877 C223.71550127 554.80513835 223.71647818 560.1266979 223.71752357 565.44825745 C223.71772584 566.49560674 223.71792811 567.54295604 223.71813651 568.62204319 C223.72168033 585.47490945 223.73559092 602.32775193 223.75338795 619.1806085 C223.77106258 636.12738862 223.77779254 653.07414521 223.77339598 670.02093422 C223.77111595 680.08673331 223.77718229 690.15244618 223.79528447 700.21822968 C223.80655957 706.94822547 223.80686496 713.67816499 223.79838729 720.40816471 C223.79387169 724.2389587 223.79399573 728.06958998 223.80754139 731.90036631 C223.87030871 750.75764742 223.21758517 767.72079512 216.74539185 785.62025452 C216.3979895 786.59583313 216.05058716 787.57141174 215.69265747 788.57655334 C202.34615391 825.13815757 175.36513381 855.43588357 140.24539185 872.37025452 C133.85517091 875.31023359 127.29322722 877.71771522 120.62039185 879.93275452 C119.80481812 880.21086975 118.98924438 880.48898499 118.1489563 880.77552795 C101.19547854 886.1099364 83.65965449 886.55427243 66.04910278 886.46083069 C63.74383688 886.45990921 61.43857013 886.46031637 59.1333046 886.46192646 C53.02240969 886.46259703 46.91169506 886.44535237 40.80084229 886.42409515 C35.04293317 886.40686713 29.28506541 886.40619808 23.52713013 886.40406799 C6.74569397 886.38839628 -10.03570944 886.34651248 -26.81710815 886.30775452 C-64.35460815 886.24587952 -101.89210815 886.18400452 -140.56710815 886.12025452 C-140.56710815 773.59025452 -140.56710815 661.06025452 -140.56710815 545.12025452 C-137.03112513 547.47757654 -133.60861602 549.81012693 -130.19210815 552.30775452 C-100.29813799 573.23801548 -65.06680392 583.20783802 -29.31710815 588.43275452 C-28.31615112 588.57994934 -27.31519409 588.72714417 -26.28390503 588.87879944 C-5.97743248 591.60536776 14.42155991 592.4544683 34.89187622 592.3809967 C38.4317638 592.37025794 41.9711442 592.38098679 45.51101685 592.39369202 C67.33246198 592.40859435 88.90879189 590.92861981 110.49539185 587.74525452 C112.0285334 587.52493634 113.56173789 587.3050557 115.09500122 587.08558655 C119.54315962 586.44496887 123.98830174 585.78511428 128.43289185 585.12025452 C129.70374634 584.93140686 130.97460083 584.7425592 132.28396606 584.54798889 C135.66860126 584.04054733 139.05118807 583.52184713 142.43289185 582.99525452 C143.3855896 582.84910706 144.33828735 582.70295959 145.31985474 582.55238342 C149.97000987 581.80520736 154.50027555 580.8810585 159.05789185 579.69056702 C166.7666716 577.79171318 174.61449607 576.49997142 182.43289185 575.12025452 C182.43289185 554.66025452 182.43289185 534.20025452 182.43289185 513.12025452 C175.50289185 516.42025452 168.57289185 519.72025452 161.43289185 523.12025452 C157.38796297 524.78777526 153.41323581 526.39419239 149.30789185 527.87025452 C148.30548462 528.236026 147.30307739 528.60179749 146.27029419 528.97865295 C143.32979308 530.04155226 140.38292286 531.08414606 137.43289185 532.12025452 C136.6111145 532.41416077 135.78933716 532.70806702 134.94265747 533.01087952 C102.25207565 544.59050081 63.79584739 550.12907734 29.43289185 544.12025452 C28.10618094 543.91120907 26.77935416 543.70289792 25.4524231 543.49525452 C0.80689103 539.46396018 -23.49379802 527.64561299 -38.56710815 507.12025452 C-55.79305731 480.28132249 -61.34858486 447.37726049 -54.94210815 416.05775452 C-49.6185593 392.61828424 -36.69814383 371.86894169 -16.5007019 358.50697327 C20.30830634 335.48835559 63.3807123 337.89537719 104.43289185 345.12025452 C105.38196411 345.28541565 106.33103638 345.45057678 107.30886841 345.6207428 C133.51789566 350.34841991 158.76635935 361.28698827 182.43289185 373.12025452 C182.43289185 352.66025452 182.43289185 332.20025452 182.43289185 311.12025452 C177.15289185 310.13025452 171.87289185 309.14025452 166.43289185 308.12025452 C162.66431763 307.39515686 162.66431763 307.39515686 158.8196106 306.65541077 C141.74329373 303.37812675 124.66315721 300.48694796 107.43289185 298.12025452 C106.24808228 297.95090393 105.06327271 297.78155334 103.84255981 297.60707092 C27.09770981 286.88807164 -67.60860994 289.30215241 -132.59860229 335.739151 C-135.22322211 337.580584 -137.89766914 339.34461637 -140.56710815 341.12025452 C-140.66085607 314.38041368 -140.73123591 287.64059774 -140.77435684 260.90062523 C-140.79491738 248.48273068 -140.82291254 236.06493868 -140.86886597 223.64710999 C-140.90893405 212.81442459 -140.93458816 201.98181353 -140.94346213 191.14905608 C-140.94864327 185.42163292 -140.96068277 179.69442227 -140.99002838 173.96706772 C-141.01751422 168.55800857 -141.02548734 163.14924611 -141.01953888 157.74012375 C-141.02062449 155.77235289 -141.02837817 153.80457036 -141.04393005 151.83686066 C-141.36524039 109.02255242 -125.20081172 71.58742716 -95.69210815 40.93275452 C-73.49359975 19.29534585 -45.61388356 7.06079345 -15.56710815 1.12025452 C-14.72298307 0.94756326 -13.87885799 0.774872 -13.00915337 0.59694767 C-8.64886006 -0.00691481 -4.39618675 -0.01440242 0 0 Z " fill="#B61833" transform="translate(680.5671081542969,127.87974548339844)"/>
<path d="M0 0 C0.94282331 -0.00085442 1.88564663 -0.00170885 2.85704035 -0.00258917 C5.99377889 -0.00422693 9.1304631 0.00124935 12.26719666 0.00672913 C14.5246531 0.00701139 16.78210964 0.00685249 19.03956604 0.00628662 C25.15248257 0.00600018 31.26537941 0.01187212 37.37829137 0.01886058 C43.77244672 0.02511966 50.16660255 0.02569994 56.5607605 0.02688599 C67.28794255 0.02963909 78.01511601 0.03588167 88.74229431 0.04481506 C99.78786686 0.05400401 110.83343746 0.06107758 121.87901306 0.06532288 C122.90149928 0.06571696 122.90149928 0.06571696 123.94464178 0.06611901 C127.36455837 0.06742411 130.78447498 0.0686878 134.2043916 0.06993091 C162.54426061 0.08028569 190.8841218 0.09796311 219.22398376 0.12025452 C219.2925603 71.72199081 219.35615568 143.32373105 219.39335632 214.92549133 C219.39390855 215.9856723 219.39446078 217.04585326 219.39502974 218.13816093 C219.40700212 241.18023345 219.41808274 264.22230633 219.42824508 287.26437972 C219.43323431 298.56464536 219.43842054 309.8649109 219.44371033 321.16517639 C219.44423336 322.2896726 219.4447564 323.41416881 219.44529529 324.57274066 C219.46233252 361.00332268 219.49237167 397.43387984 219.52917265 433.8644468 C219.56693007 471.30995435 219.59153182 508.75544815 219.59964372 546.20097441 C219.6007963 551.49314181 219.60209884 556.78530916 219.60349274 562.0774765 C219.60389727 563.639797 219.60389727 563.639797 219.60430999 565.23367954 C219.60903193 581.98162334 219.62757086 598.72952454 219.6513119 615.47745099 C219.67489905 632.3257259 219.68384613 649.17395871 219.67798927 666.02224955 C219.67495318 676.02502445 219.6830021 686.02764489 219.70717394 696.03039183 C219.72223881 702.72347876 219.72259278 709.41646523 219.71131102 716.10955925 C219.7053064 719.91603139 219.7053874 723.72221266 219.72351649 727.52865288 C219.7953468 743.52690131 219.20705136 758.56720078 215.22398376 774.12025452 C214.99031672 775.16032835 214.75664967 776.20040218 214.5159018 777.2719934 C208.88117221 802.33849061 193.78141202 824.89575072 176.22398376 843.12025452 C175.58203064 843.8253717 174.94007751 844.53048889 174.27867126 845.25697327 C150.39322728 870.7451202 113.07407874 885.12027732 78.66748619 886.38525963 C72.71753623 886.52010502 66.76943013 886.4926058 60.81846619 886.46083069 C58.52309084 886.45990902 56.22771464 886.46031669 53.93233967 886.46192646 C47.85258204 886.4625965 41.77300594 886.44536333 35.69329071 886.42409515 C29.96283472 886.40685562 24.23242018 886.40619746 18.50193787 886.40406799 C1.80509632 886.38840187 -14.89171233 886.34651808 -31.58851624 886.30775452 C-68.94039124 886.24587952 -106.29226624 886.18400452 -144.77601624 886.12025452 C-144.77601624 786.79025452 -144.77601624 687.46025452 -144.77601624 585.12025452 C-24.58851624 584.87025452 -24.58851624 584.87025452 13.27549744 584.82240295 C24.53573711 584.78915816 24.53573711 584.78915816 35.79595947 584.75068665 C40.78756728 584.73377175 45.77905513 584.7278189 50.77069092 584.72871399 C57.16072065 584.72949141 63.55043493 584.71097223 69.9403826 584.67916536 C72.27118722 584.67072395 74.60202771 584.66875514 76.9328407 584.67443037 C107.83305585 584.74007677 136.15780673 578.79234631 159.34898376 557.13587952 C163.53248165 552.78896374 166.6400405 548.06349464 169.53648376 542.80775452 C169.86213318 542.22824036 170.18778259 541.6487262 170.52330017 541.051651 C177.82898484 527.08802957 178.84861583 508.02303875 175.41539001 492.78041077 C169.40870107 474.30308732 155.12466555 460.90430469 138.28355408 452.10658264 C123.91255357 444.98200683 109.07731287 441.85136517 93.22398376 440.12025452 C93.22398376 439.46025452 93.22398376 438.80025452 93.22398376 438.12025452 C94.28874939 437.90111389 95.35351501 437.68197327 96.45054626 437.45619202 C118.28628783 432.7677066 137.69333755 423.63249189 150.17710876 404.45619202 C159.02263454 390.0400107 161.84218501 372.87339462 158.47398376 356.18275452 C158.08969055 354.81904736 157.67125907 353.46462176 157.22398376 352.12025452 C156.95585876 351.24240295 156.68773376 350.36455139 156.41148376 349.46009827 C154.25714694 342.93425296 151.38051908 337.57822929 147.22398376 332.12025452 C146.73414001 331.4538092 146.24429626 330.78736389 145.73960876 330.10072327 C133.60343175 314.87042191 112.6811547 306.91030872 94.00340271 303.90437317 C92.96572896 303.73590055 91.9280552 303.56742794 90.85893679 303.39385009 C79.81591231 301.72677639 68.89975868 301.54473542 57.75328064 301.57435608 C55.52316071 301.56559059 53.29304703 301.55509466 51.0629425 301.54302979 C45.09342829 301.51551318 39.12412273 301.51175739 33.15455437 301.51274967 C26.88456081 301.50959061 20.61465721 301.48391106 14.3447113 301.46076965 C3.84841665 301.42499639 -6.64783234 301.40276077 -17.1441803 301.39125061 C-27.94174178 301.37937213 -38.73923505 301.35908011 -49.53675842 301.32777405 C-50.53989188 301.3248699 -50.53989188 301.3248699 -51.56329066 301.32190707 C-54.91919594 301.31214055 -58.27510072 301.30221179 -61.63100529 301.29220247 C-89.34597786 301.21010977 -117.06094761 301.15582698 -144.77601624 301.12025452 C-144.84637208 279.56121325 -144.89913377 258.00219115 -144.93145275 236.44305801 C-144.94686375 226.4307952 -144.96784176 216.41860409 -145.00233459 206.40638733 C-145.03241485 197.67077798 -145.05163304 188.93522059 -145.05828172 180.19956088 C-145.06216272 175.58223195 -145.0711604 170.96505158 -145.09320641 166.34777069 C-145.30361997 120.45097142 -137.67978453 80.38845339 -104.77601624 46.12025452 C-104.31920471 45.62702698 -103.86239319 45.13379944 -103.39173889 44.62562561 C-76.9172166 16.0598533 -38.90456839 -0.1310376 0 0 Z " fill="#20993A" transform="translate(1093.7760162353516,127.87974548339844)"/>
<path d="M0 0 C22.68821648 -0.16043524 22.68821648 -0.16043524 32.42382812 -0.1953125 C39.04448408 -0.21914376 45.66491693 -0.24721364 52.28540039 -0.30175781 C57.6281814 -0.34549558 62.97072286 -0.36919574 68.3136692 -0.37950897 C70.34324726 -0.38685049 72.37281349 -0.40118558 74.40228844 -0.42292023 C88.4233269 -0.56698844 101.80025148 -0.68838266 113.00390625 9.03515625 C121.68312028 17.57849217 126.05687934 26.84904709 126.4375 39.1875 C125.97644134 50.5057464 121.60657364 60.90608208 113.375 68.8125 C105.23189221 75.47504274 95.31207558 78.15610283 85.03051758 78.11352539 C83.65460701 78.11374443 83.65460701 78.11374443 82.25090027 78.1139679 C79.21541997 78.11327057 76.18000084 78.10548656 73.14453125 78.09765625 C71.04131606 78.09579143 68.93810043 78.09436783 66.83488464 78.09336853 C61.29630334 78.08954839 55.7577482 78.07972237 50.21917725 78.06866455 C43.57536612 78.05664225 36.93154624 78.05204579 30.28772736 78.04621124 C20.19180002 78.03651037 10.09593014 78.01735027 0 78 C0 52.26 0 26.52 0 0 Z " fill="#008F3E" transform="translate(1021,589)"/>
<path d="M0 0 C20.94125501 -0.20054405 20.94125501 -0.20054405 29.93554688 -0.24414062 C36.04929571 -0.27391631 42.16266665 -0.30896535 48.27612305 -0.37719727 C53.2104383 -0.43191803 58.14434775 -0.46150426 63.07894325 -0.47438622 C64.95224702 -0.48355472 66.82553107 -0.5014569 68.6986599 -0.52865028 C81.7259837 -0.71008475 93.03043605 -0.20452746 103.5625 8.5 C104.73098027 9.64398383 105.88038391 10.80815062 107 12 C107.7425 12.763125 108.485 13.52625 109.25 14.3125 C114.94346625 23.05603746 117.08648336 32.68451196 116 43 C113.02535849 53.1335298 108.55598744 60.71333147 99.76953125 66.54296875 C98.85558594 67.02378906 97.94164062 67.50460937 97 68 C96.42099442 68.33117325 95.84198883 68.6623465 95.24543762 69.0035553 C86.29909864 73.39036871 76.702167 72.50110225 66.9921875 72.390625 C65.05592435 72.3831536 63.11965358 72.37746492 61.18338013 72.37347412 C56.11652309 72.35828851 51.05013338 72.31906849 45.98345947 72.2746582 C39.88855647 72.2263097 33.79349617 72.20813777 27.69845581 72.18484497 C18.46531337 72.14621258 9.23319392 72.06950962 0 72 C0 48.24 0 24.48 0 0 Z " fill="#008E3E" transform="translate(1021,473)"/>
</svg>
