<?xml version="1.0" encoding="UTF-8"?><svg id="uuid-581ac998-798a-4ea9-adf5-caebee85ad53" xmlns="http://www.w3.org/2000/svg" width="768" height="942.34" viewBox="0 0 768 942.34"><defs><style>.uuid-f25eeb15-8c45-4d1e-971a-0199603085cc{fill:#043148;}.uuid-8c6008f1-ad75-4e2e-9c04-5a8f550459a3{fill:#2291ae;}.uuid-18bfe4ed-cbe5-449f-9fc1-b5c2470d8c30{fill:#ffa903;}</style></defs><g id="uuid-2b43fdef-ae3e-4435-acf5-f61008a20351"><path class="uuid-f25eeb15-8c45-4d1e-971a-0199603085cc" d="M102.87,102.87h205.17V0H42.13C18.86,0,0,18.86,0,42.13v858.07c0,23.27,18.86,42.13,42.13,42.13h265.91v-102.87H102.87V102.87Z"/><path class="uuid-f25eeb15-8c45-4d1e-971a-0199603085cc" d="M725.87,0h-266.68v102.87h205.94v736.59h-205.94v102.87h266.68c23.27,0,42.13-18.86,42.13-42.13V42.13c0-23.27-18.86-42.13-42.13-42.13Z"/><polygon class="uuid-18bfe4ed-cbe5-449f-9fc1-b5c2470d8c30" points="459.19 625.48 459.19 736.59 562.06 736.59 562.06 522.6 205.17 522.6 205.17 736.59 308.04 736.59 308.04 625.48 459.19 625.48"/><polygon class="uuid-8c6008f1-ad75-4e2e-9c04-5a8f550459a3" points="205.17 205.55 205.17 419.73 562.06 419.73 562.06 205.55 459.19 205.55 459.19 316.86 308.04 316.86 308.04 205.55 205.17 205.55"/></g></svg>