<?xml version="1.0" encoding="UTF-8"?><svg id="uuid-1f1f2f67-fe52-4bc7-af04-5a0298ed39ec" xmlns="http://www.w3.org/2000/svg" width="1200" height="289.15" viewBox="0 0 1200 289.15"><defs><style>.uuid-fcb9861b-3231-40df-bb04-3dada727bfc2{fill:#fff;}</style></defs><g id="uuid-b288d17b-9e56-4c4a-a38d-d8715d9cba14"><path class="uuid-fcb9861b-3231-40df-bb04-3dada727bfc2" d="M31.57,31.57h62.95V0H12.93C5.79,0,0,5.79,0,12.93v263.29c0,7.14,5.79,12.93,12.93,12.93h81.59v-31.57H31.57V31.57Z"/><path class="uuid-fcb9861b-3231-40df-bb04-3dada727bfc2" d="M222.72,0h-81.83v31.57h63.19v226.02h-63.19v31.57h81.83c7.14,0,12.93-5.79,12.93-12.93V12.93c0-7.14-5.79-12.93-12.93-12.93Z"/><polygon class="uuid-fcb9861b-3231-40df-bb04-3dada727bfc2" points="140.9 191.92 140.9 226.02 172.46 226.02 172.46 160.36 62.95 160.36 62.95 226.02 94.52 226.02 94.52 191.92 140.9 191.92"/><polygon class="uuid-fcb9861b-3231-40df-bb04-3dada727bfc2" points="62.95 63.07 62.95 128.79 172.46 128.79 172.46 63.07 140.9 63.07 140.9 97.23 94.52 97.23 94.52 63.07 62.95 63.07"/><path class="uuid-fcb9861b-3231-40df-bb04-3dada727bfc2" d="M407.1,47.7v113.17h-29.98v-42.62h-33.63v42.62h-30.05V47.7h30.05v42.47h33.63v-42.47h29.98Z"/><path class="uuid-fcb9861b-3231-40df-bb04-3dada727bfc2" d="M473.14,47.7h42.76c23.31,0,42.75,17.55,42.75,39.67s-19.03,40.16-42.75,40.16h-12.71v33.35h-30.05V47.7ZM529.65,87.51c0-6.88-5.76-12.08-13.76-12.08h-12.71v24.36l12.71.07c8.07.07,13.76-5.41,13.76-12.36Z"/><path class="uuid-fcb9861b-3231-40df-bb04-3dada727bfc2" d="M597.13,75.64v15.8h35.95v25.06h-35.95v16.22h43.67v28.15h-73.37V47.7h73.37v27.94h-43.67Z"/><path class="uuid-fcb9861b-3231-40df-bb04-3dada727bfc2" d="M694.51,154.91l15.16-24.78c4.07,3.09,6.81,4.28,12.36,4.28h.49c10.39,0,18.6-8.14,18.6-17.2l-.56-69.5,30.12.07.49,69.57c0,25.62-21.48,45.35-48.51,45.35h-.84c-10.67,0-19.1-2.46-27.31-7.79Z"/><path class="uuid-fcb9861b-3231-40df-bb04-3dada727bfc2" d="M852.57,147.68h-42.26l-5.76,13.2h-32.86l52.59-114.58h14.25l52.65,114.58h-32.93l-5.69-13.2ZM843.02,125.7l-11.58-26.82-11.65,26.82h23.24Z"/><path class="uuid-fcb9861b-3231-40df-bb04-3dada727bfc2" d="M899.28,47.7h42.76c23.31,0,42.75,17.55,42.75,39.67s-19.03,40.16-42.75,40.16h-12.71v33.35h-30.05V47.7ZM955.8,87.51c0-6.88-5.76-12.08-13.76-12.08h-12.71v24.36l12.71.07c8.07.07,13.76-5.41,13.76-12.36Z"/><path class="uuid-fcb9861b-3231-40df-bb04-3dada727bfc2" d="M1055.49,147.68h-42.26l-5.76,13.2h-32.86l52.59-114.58h14.25l52.65,114.58h-32.93l-5.69-13.2ZM1045.94,125.7l-11.58-26.82-11.65,26.82h23.24Z"/><path class="uuid-fcb9861b-3231-40df-bb04-3dada727bfc2" d="M1200,47.56v114.44h-9.55l-58.2-56.38v55.32h-30.05V46.58h9.69l57.99,56.17v-55.18h30.12Z"/><rect class="uuid-fcb9861b-3231-40df-bb04-3dada727bfc2" x="425.08" y="47.7" width="30.05" height="27.73"/><rect class="uuid-fcb9861b-3231-40df-bb04-3dada727bfc2" x="425.08" y="90.46" width="30.05" height="70.42"/><path class="uuid-fcb9861b-3231-40df-bb04-3dada727bfc2" d="M313.45,199.18h6.74v42.92h-6.74v-42.92Z"/><path class="uuid-fcb9861b-3231-40df-bb04-3dada727bfc2" d="M403.84,199.08v43.77h-.32l-27.45-28.67v27.98h-6.74v-43.72h.35l27.4,28.62v-27.98h6.76Z"/><path class="uuid-fcb9861b-3231-40df-bb04-3dada727bfc2" d="M450.93,220.67c0-12.09,10.09-22.23,22.15-22.23,5.56.08,10.7,2.45,14.91,6.55l-3.91,5.3c-3.01-3.01-6.92-5.01-11.13-5.01-7.77,0-15.2,6.82-15.2,15.42s7.53,15.34,15.23,15.34c4.39,0,8.17-2.18,11.13-5.11l3.89,5.43c-3.7,3.65-8.41,6.44-14.8,6.44-12.17,0-22.26-10.01-22.26-22.12Z"/><path class="uuid-fcb9861b-3231-40df-bb04-3dada727bfc2" d="M530.35,220.7c0-12.25,9.96-22.26,22.18-22.26s22.2,10.01,22.2,22.26-10.01,22.1-22.23,22.1-22.15-9.96-22.15-22.1ZM567.92,220.64c0-8.49-6.95-15.42-15.42-15.42s-15.36,6.92-15.36,15.42,6.9,15.34,15.36,15.34,15.42-6.9,15.42-15.34Z"/><path class="uuid-fcb9861b-3231-40df-bb04-3dada727bfc2" d="M645.4,242.1l-11.55-16.61h-5.27v16.61h-6.74l-.03-42.92h13.34c7.99,0,14.54,6.15,14.54,13.79,0,5.54-3.57,10.36-8.49,11.95l12.49,17.17h-8.28ZM635.31,219.9c4.05.03,7.43-3.25,7.43-7.08s-3.43-6.95-7.43-6.95h-6.76v14.03h6.76Z"/><path class="uuid-fcb9861b-3231-40df-bb04-3dada727bfc2" d="M699.1,199.18h14.35c8.31,0,15.1,6.36,15.1,14.16s-6.79,13.87-15.1,13.87h-7.61v14.88h-6.74v-42.92ZM721.81,213.3c0-4.1-3.75-7.43-8.36-7.43h-7.61v14.67l7.61.03c4.61.03,8.36-3.25,8.36-7.27Z"/><path class="uuid-fcb9861b-3231-40df-bb04-3dada727bfc2" d="M772.74,220.7c0-12.25,9.96-22.26,22.18-22.26s22.2,10.01,22.2,22.26-10.01,22.1-22.23,22.1-22.15-9.96-22.15-22.1ZM810.3,220.64c0-8.49-6.95-15.42-15.42-15.42s-15.36,6.92-15.36,15.42,6.9,15.34,15.36,15.34,15.42-6.9,15.42-15.34Z"/><path class="uuid-fcb9861b-3231-40df-bb04-3dada727bfc2" d="M887.78,242.1l-11.55-16.61h-5.27v16.61h-6.74l-.03-42.92h13.34c7.99,0,14.54,6.15,14.54,13.79,0,5.54-3.57,10.36-8.49,11.95l12.49,17.17h-8.28ZM877.69,219.9c4.05.03,7.43-3.25,7.43-7.08s-3.43-6.95-7.43-6.95h-6.76v14.03h6.76Z"/><path class="uuid-fcb9861b-3231-40df-bb04-3dada727bfc2" d="M968.5,235.58h-20.31l-2.93,6.52h-7.29l20.18-43.8h.4l20.18,43.8h-7.29l-2.93-6.52ZM965.9,229.8l-7.53-16.77-7.56,16.77h15.1Z"/><path class="uuid-fcb9861b-3231-40df-bb04-3dada727bfc2" d="M1045.95,205.87h-11.5v36.24h-6.76v-36.24h-11.5v-6.68h29.77v6.68Z"/><path class="uuid-fcb9861b-3231-40df-bb04-3dada727bfc2" d="M1098.94,205.81v11h16.24v6.71h-16.24v11.87h18.82v6.71h-25.56v-42.92h25.56v6.63h-18.82Z"/><path class="uuid-fcb9861b-3231-40df-bb04-3dada727bfc2" d="M1200,220.7c0,13.18-8.49,21.41-22.12,21.41h-12.22v-42.92h12.22c13.63-.03,22.12,8.23,22.12,21.51ZM1193.18,220.67c0-9.11-5.91-14.8-15.34-14.8h-5.48v29.53h5.56c9.37,0,15.26-5.67,15.26-14.72Z"/></g></svg>